<svg width="33" height="33" viewBox="0 0 33 33" fill="none" xmlns="http://www.w3.org/2000/svg">
<g clip-path="url(#clip0)">
<path d="M3.04788 22.135L0.495235 28.1354C-0.220976 29.8153 -0.355661 31.731 1.43793 32.3983C1.86643 32.5594 2.30105 32.6342 2.73568 32.6342C4.11913 32.6342 5.43524 31.8518 5.98005 30.5689L6.49426 29.3608L10.4304 20.1157L14.3481 10.9052C15.2831 9.26804 15.8565 6.74865 19.5269 5.39389C16.6734 5.02795 10.9212 4.2749 10.8637 4.2749C10.8269 4.33243 10.4426 4.9164 10.4059 4.97393C10.3263 5.10049 10.2467 5.23281 10.1855 5.37088C10.1794 5.38239 10.1794 5.38814 10.1733 5.39389L3.054 22.1235C3.054 22.1235 3.04788 22.1293 3.04788 22.135Z" fill="url(#paint0_radial)"/>
<path d="M28.5675 22.1348L31.1201 28.1352C31.8363 29.815 31.971 31.7308 30.1774 32.3981C29.7489 32.5592 29.3143 32.634 28.8797 32.634C27.4962 32.634 26.1801 31.8516 25.6353 30.5687L25.1211 29.3606L21.185 20.1155L17.2673 10.905C16.3323 9.26783 14.7539 5.88358 10.5386 4.78962C11.0711 3.54123 12.8965 3.32837 14.3228 3.32837H18.1916H18.2222C18.3752 3.33412 18.5222 3.35138 18.6813 3.37439C18.7609 3.3859 18.8466 3.3859 18.9262 3.40316C19.0302 3.42617 19.1282 3.46644 19.2323 3.49521C19.3486 3.52972 19.4649 3.55273 19.5751 3.59876C19.624 3.62177 19.673 3.65054 19.722 3.67355C19.875 3.74258 20.0219 3.81162 20.1627 3.89791C20.2607 3.95544 20.3402 4.03598 20.4321 4.10502C20.5116 4.1683 20.6035 4.22583 20.6769 4.29487C20.7443 4.3639 20.8055 4.44445 20.8728 4.51923C20.9524 4.61128 21.0381 4.69182 21.1054 4.78962C21.1421 4.84715 21.1728 4.91619 21.2095 4.97372C21.2891 5.10028 21.3686 5.2326 21.4299 5.37067C21.436 5.38218 21.436 5.38793 21.4421 5.39369L28.5614 22.1233C28.5614 22.1233 28.5675 22.1291 28.5675 22.1348Z" fill="url(#paint1_radial)"/>
</g>
<defs>
<radialGradient id="paint0_radial" cx="0" cy="0" r="1" gradientUnits="userSpaceOnUse" gradientTransform="translate(12.1197 7.41692) rotate(112.412) scale(27.6399 18.8671)">
<stop stop-color="#142167"/>
<stop offset="1" stop-color="#263DB5"/>
</radialGradient>
<radialGradient id="paint1_radial" cx="0" cy="0" r="1" gradientUnits="userSpaceOnUse" gradientTransform="translate(29.5677 9.76656) rotate(132.41) scale(25.6557 89.7655)">
<stop stop-color="#4259D4"/>
<stop offset="1" stop-color="#6A81FC"/>
</radialGradient>

</defs>
</svg>
