<svg clip-rule="evenodd" fill-rule="evenodd" stroke-linejoin="round" stroke-miterlimit="2" viewBox="0 0 24 24" xmlns="http://www.w3.org/2000/svg"><path d="m15 5c0-.53-.47-1-1-1h-11c-.53 0-1 .47-1 1v14c0 .53.47 1 1 1h11c.53 0 1-.47 1-1zm7 11.6c0-.53-.47-1-1-1h-3.6c-.53 0-1 .47-1 1v2.4c0 .53.47 1 1 1h3.6c.53 0 1-.47 1-1zm0-5.8c0-.53-.47-1-1-1h-3.6c-.53 0-1 .47-1 1v2.4c0 .53.47 1 1 1h3.6c.53 0 1-.47 1-1zm0-5.8c0-.53-.47-1-1-1h-3.6c-.53 0-1 .47-1 1v2.4c0 .53.47 1 1 1h3.6c.53 0 1-.47 1-1z" fill-rule="nonzero"/></svg>