<svg clip-rule="evenodd" fill-rule="evenodd" stroke-linejoin="round" stroke-miterlimit="2" viewBox="0 0 24 24" xmlns="http://www.w3.org/2000/svg"><path d="m11.3 13.7c0-.53-.47-1-1-1h-7.3c-.53 0-1 .47-1 1v5.3c0 .53.47 1 1 1h7.3c.53 0 1-.47 1-1zm10.7 0c0-.53-.47-1-1-1h-7.3c-.53 0-1 .47-1 1v5.3c0 .53.47 1 1 1h7.3c.53 0 1-.47 1-1zm0-8.7c0-.53-.47-1-1-1h-7.3c-.53 0-1 .47-1 1v5.3c0 .53.47 1 1 1h7.3c.53 0 1-.47 1-1zm-10.7 0c0-.53-.47-1-1-1h-7.3c-.53 0-1 .47-1 1v5.3c0 .53.47 1 1 1h7.3c.53 0 1-.47 1-1z" fill-rule="nonzero"/></svg>